<?xml version="1.0" encoding="iso-8859-1"?>
<!DOCTYPE svg PUBLIC "-//W3C//DTD SVG 1.1//EN" "http://www.w3.org/Graphics/SVG/1.1/DTD/svg11.dtd">
<svg fill="#f4e401" version="1.1" id="Capa_1" xmlns="http://www.w3.org/2000/svg" xmlns:xlink="http://www.w3.org/1999/xlink" 
	 width="800px" height="800px" viewBox="0 0 463.173 463.173"
	 xml:space="preserve">
<g>
	<path d="M25.543,190.264C11.438,190.264,0,201.703,0,215.809v49.396c0,14.106,11.438,25.552,25.543,25.552
		c14.106,0,25.553-11.438,25.553-25.552v-6.243H86.45v25.407c0,7.666,4.897,17.709,10.94,22.441l71.393,55.787v94.283h125.604
		v-95.485l71.312-54.686c6.087-4.676,11.024-14.675,11.024-22.341v-25.407h35.35v6.243c0,14.106,11.441,25.552,25.555,25.552
		c14.106,0,25.544-11.438,25.544-25.552v-49.396c0-14.106-11.438-25.545-25.544-25.545c-14.105,0-25.555,11.439-25.555,25.545v7.625
		h-35.35V109.805h35.35v7.582c0,14.106,11.441,25.553,25.555,25.553c14.106,0,25.544-11.439,25.544-25.553V68.001
		c0-14.106-11.438-25.545-25.544-25.545c-14.105,0-25.555,11.439-25.555,25.545v6.282h-35.35V15.692
		c0-7.67-5.703-11.395-12.724-8.321L243.85,59.978c-7.028,3.078-18.419,3.062-25.438-0.03L99.156,7.405
		C92.139,4.313,86.45,8.022,86.45,15.692v58.583H51.097v-6.281c0-14.106-11.439-25.545-25.553-25.545
		C11.438,42.448,0,53.887,0,68.001v49.394c0,14.106,11.438,25.553,25.543,25.553c14.106,0,25.553-11.435,25.553-25.553v-7.582H86.45
		v113.628H51.097v-7.624C51.097,201.703,39.658,190.264,25.543,190.264z"/>
</g>
</svg>