<?xml version="1.0" encoding="utf-8"?>
<svg width="800px" height="800px" viewBox="0 0 24 24" fill="none" xmlns="http://www.w3.org/2000/svg">
<path id="vector (Stroke)" fill-rule="evenodd" clip-rule="evenodd" d="M1.25 8C1.25 4.27208 4.27208 1.25 8 1.25H16C19.7279 1.25 22.75 4.27208 22.75 8V16C22.75 19.7279 19.7279 22.75 16 22.75H8C4.27208 22.75 1.25 19.7279 1.25 16V8ZM8 2.75C5.10051 2.75 2.75 5.10051 2.75 8V16C2.75 18.8995 5.10051 21.25 8 21.25H16C18.8995 21.25 21.25 18.8995 21.25 16V8C21.25 5.10051 18.8995 2.75 16 2.75H8Z" fill="#00903d"/>
<path d="M8.5 12.5L10.5 14.5L15.5 9.5" stroke="#00903d" stroke-width="1.5" stroke-linecap="round" stroke-linejoin="round"/>
</svg>